# xmcd
#
# Track frame offsets:
# 150
# 13379
# 25136
# 37145
# 48021
# 57589
# 67771
# 82345
# 95086
# 109531
# 120024
# 134317
# 143484
# 155397
# 169673
# 180275
# 189285
# 197323
# 210857
# 223561
#
# Disc length: 3171 seconds
#
#
# Revision: 0
# Processed by: cddbd v1.5PL3 Copyright (c) Steve Scherf et al.
# Submitted via: FreeRIP 2.53 
#
DISCID=010c6114
DTITLE=Horton, Johnny - America Remembers...Johnny Horton
DYEAR=1900
DGENRE=
TTITLE0=North To Alaska
TTITLE1=Battle Of New Orleans
TTITLE2=When It's Springtime In Alaska
TTITLE3=Johnny Reb
TTITLE4=I'm Coming Home
TTITLE5=Honky Tonk Man
TTITLE6=Sink The Bismark
TTITLE7=All For The Love Of A Girl
TTITLE8=The Mansion You Stole
TTITLE9=I'm Ready If Your Willing
TTITLE10=The Jim Bridger Story
TTITLE11=I'm A One Woman Man
TTITLE12=Sleepy-Eyed Joe
TTITLE13=They'll Never Take Her Love From Me
TTITLE14=Old Slewfoot
TTITLE15=All Grown Up
TTITLE16=She's Got A Sugar Lip
TTITLE17=Whispering Pines
TTITLE18=Johnny Freedom
TTITLE19=Comanche
EXTD=
EXTT0=
EXTT1=
EXTT2=
EXTT3=
EXTT4=
EXTT5=
EXTT6=
EXTT7=
EXTT8=
EXTT9=
EXTT10=
EXTT11=
EXTT12=
EXTT13=
EXTT14=
EXTT15=
EXTT16=
EXTT17=
EXTT18=
EXTT19=
PLAYORDER=
